<?xml version="1.0" encoding="UTF-8"?>
<svg width="14px" height="14px" viewBox="0 0 14 14" version="1.1" xmlns="http://www.w3.org/2000/svg" xmlns:xlink="http://www.w3.org/1999/xlink">
    <title>icon-moon</title>
    <g id="icon-moon" stroke="none" stroke-width="1" fill="none" fill-rule="evenodd">
        <path d="M7.31195138,13.0648211 C9.92910196,13.0648211 12.1573261,11.4848076 12.9189737,9.49155976 C12.9837947,9.32950709 13,9.15935179 13,9.09453072 C13,8.85145172 12.7974342,8.69750169 12.6191762,8.69750169 C12.5219446,8.69750169 12.4409183,8.71370695 12.2950709,8.76232275 C11.8413234,8.92437542 11.1120864,9.07022282 10.3990547,9.07022282 C7.13369345,9.07022282 5.09993248,7.09318028 5.09993248,3.82781904 C5.09993248,3.20391627 5.27819041,2.18298447 5.48075625,1.7049291 C5.55367995,1.54287643 5.56178258,1.44564483 5.56178258,1.37272113 C5.56178258,1.1944632 5.44024308,1 5.18095881,1 C5.09993248,1 4.93787981,1.01620527 4.77582714,1.08102633 C2.51519244,1.972316 1,4.38690074 1,6.93112762 C1,10.5367995 3.72248481,13.0648211 7.31195138,13.0648211 Z" id="☾" fill="#FAFAFA" fill-rule="nonzero"></path>
    </g>
</svg>