<?xml version="1.0" encoding="UTF-8"?>
<svg width="14px" height="14px" viewBox="0 0 14 14" version="1.1" xmlns="http://www.w3.org/2000/svg" xmlns:xlink="http://www.w3.org/1999/xlink">
    <title>icon-sun</title>
    <g id="icon-sun" stroke="none" stroke-width="1" fill="none" fill-rule="evenodd">
        <path d="M7.19868996,2.84279476 L7.19868996,0 L6.81659389,0 L6.81659389,2.84279476 L7.19868996,2.84279476 Z M3.9279476,4.18777293 L4.20305677,3.91266376 L2.18558952,1.91048035 L1.92576419,2.18558952 L3.9279476,4.18777293 Z M10.0873362,4.20305677 L12.0895197,2.18558952 L11.8144105,1.92576419 L9.81222707,3.9279476 L10.0873362,4.20305677 Z M7,10.1790393 C8.75764192,10.1790393 10.1790393,8.75764192 10.1790393,7 C10.1790393,5.24235808 8.75764192,3.8209607 7,3.8209607 C5.24235808,3.8209607 3.8209607,5.24235808 3.8209607,7 C3.8209607,8.75764192 5.24235808,10.1790393 7,10.1790393 Z M2.84279476,7.18340611 L2.84279476,6.80131004 L0,6.80131004 L0,7.18340611 L2.84279476,7.18340611 Z M14,7.19868996 L14,6.81659389 L11.1572052,6.81659389 L11.1572052,7.19868996 L14,7.19868996 Z M2.18558952,12.0742358 L4.18777293,10.0720524 L3.91266376,9.79694323 L1.91048035,11.8144105 L2.18558952,12.0742358 Z M11.8144105,12.0895197 L12.0742358,11.8144105 L10.0720524,9.81222707 L9.79694323,10.0873362 L11.8144105,12.0895197 Z M7.18340611,14 L7.18340611,11.1572052 L6.80131004,11.1572052 L6.80131004,14 L7.18340611,14 Z" id="☀" fill="#303030" fill-rule="nonzero"></path>
    </g>
</svg>